<svg width="46" height="46" viewBox="0 0 46 46" fill="none" xmlns="http://www.w3.org/2000/svg">
<rect width="46" height="46" rx="6" fill="#262626"/>
<g clip-path="url(#clip0_2378_2)">
<path fill-rule="evenodd" clip-rule="evenodd" d="M14.2179 31.6053C13.771 31.225 13.717 30.5545 14.0972 30.1075L29.2452 12.305C29.6254 11.8581 30.296 11.8041 30.7429 12.1843C31.1898 12.5646 31.2439 13.2352 30.8636 13.6821L15.7156 31.4846C15.3354 31.9315 14.6648 31.9856 14.2179 31.6053ZM19.8823 36.4251C19.4354 36.0448 19.3814 35.3743 19.7617 34.9273L34.9096 17.1248C35.2899 16.6779 35.9605 16.6239 36.4074 17.0041C36.8543 17.3844 36.9083 18.055 36.528 18.5019L21.3801 36.3044C20.9998 36.7513 20.3293 36.8054 19.8823 36.4251ZM33.1208 32.3436C32.6738 31.9633 32.6198 31.2928 33.0001 30.8459L36.7871 26.3952L40.5741 21.9446C40.9543 21.4977 41.6249 21.4437 42.0718 21.8239C42.5187 22.2042 42.5727 22.8748 42.1925 23.3217L34.6185 32.223C34.2382 32.6699 33.5677 32.7239 33.1208 32.3436Z" fill="#D8FF99"/>
</g>
<g clip-path="url(#clip1_2378_2)">
<path fill-rule="evenodd" clip-rule="evenodd" d="M31.009 30.9128C30.5869 31.3204 29.9142 31.3085 29.5066 30.8864L13.2711 14.0698C12.8635 13.6476 12.8753 12.975 13.2975 12.5674C13.7196 12.1599 14.3923 12.1717 14.7999 12.5938L31.0354 29.4104C31.443 29.8326 31.4312 30.5052 31.009 30.9128ZM36.3597 25.7469C35.9376 26.1545 35.2649 26.1427 34.8574 25.7205L18.6218 8.90394C18.2142 8.48178 18.226 7.80915 18.6482 7.40157C19.0704 6.994 19.743 7.00582 20.1506 7.42798L36.3861 24.2445C36.7937 24.6667 36.7819 25.3393 36.3597 25.7469ZM33.5927 12.1728C33.1705 12.5803 32.4979 12.5685 32.0903 12.1464L28.0314 7.94222L23.9725 3.73808C23.5649 3.31592 23.5768 2.64328 23.9989 2.23571C24.4211 1.82813 25.0937 1.83996 25.5013 2.26212L33.6191 10.6704C34.0267 11.0926 34.0148 11.7652 33.5927 12.1728Z" fill="#D8FF99"/>
</g>
<defs>
<clipPath id="clip0_2378_2">
<rect width="26" height="5" fill="white" transform="translate(12.8657 30.7831) rotate(-49.606)"/>
</clipPath>
<clipPath id="clip1_2378_2">
<rect width="26" height="5" fill="white" transform="translate(30.0586 32.1779) rotate(-133.993)"/>
</clipPath>
</defs>
</svg>
