<svg width="26" height="26" viewBox="0 0 26 26" fill="none" xmlns="http://www.w3.org/2000/svg">
<path d="M13.9752 6.17495C13.9752 5.63647 13.5387 5.19995 13.0002 5.19995C12.4617 5.19995 12.0252 5.63647 12.0252 6.17495V12.025H6.1752C5.63672 12.025 5.2002 12.4615 5.2002 13C5.2002 13.5384 5.63672 13.975 6.1752 13.975L12.0252 13.975V19.825C12.0252 20.3634 12.4617 20.8 13.0002 20.8C13.5387 20.8 13.9752 20.3634 13.9752 19.825V13.975H19.8252C20.3637 13.975 20.8002 13.5384 20.8002 13C20.8002 12.4615 20.3637 12.025 19.8252 12.025H13.9752V6.17495Z" fill="white"/>
</svg>
